# xmcd
#
# Track frame offsets:
#	150
#	16651
#	34657
#	51162
#	70790
#	87612
#	105935
#	120406
#	137442
#	154260
#	169574
#	191999
# Disc length: 2797 seconds
# Revision: 1
# Processed by: cddbd v1.5.1PL2 Copyright (c) Steve Scherf et al.
#
# Submitted via: libkcddb 0.21
#
DISCID=920aeb0c
DTITLE=Shedaisy - Shedaisy
DYEAR=1900
DGENRE=Country
TTITLE0=don't worry 'bout a thing
TTITLE1=he's a hero
TTITLE2=i dare you
TTITLE3=Love Goes On
TTITLE4=without a sound
TTITLE5=That's Just Me
TTITLE6=Before Me And You
TTITLE7='Cause I Like It That Way
TTITLE8=I Will...But
TTITLE9=Little Goodbyes
TTITLE10=Whole shebang - Dancing with angels
TTITLE11=Without Your Love
EXTD=
EXTT0=
EXTT1=
EXTT2=
EXTT3=
EXTT4=
EXTT5=
EXTT6=
EXTT7=
EXTT8=
EXTT9=
EXTT10=
EXTT11=
PLAYORDER=
